# xmcd
#
# Track frame offsets:
#	150
#	18147
#	45422
#	62856
#	78955
#	97080
#	115394
#	134487
#	149831
#	162496
#	180878
#	210613
#	229107
#	252126
#	273524
#	297980
#	323048
#	342115
#
# Disc length: 4689 seconds
#
# Revision: 4
# Processed by: cddbd v1.5.2PL0 Copyright (c) Steve Scherf et al.
# Submitted via: audiograbber 1.83.01
#
DISCID=08124f12
DTITLE=Gregorians - De Luxe Collection
DYEAR=2002
DGENRE=New Age
TTITLE0=Moment Of Pease
TTITLE1=Magna Charta
TTITLE2=Watcha Gonna Do
TTITLE3=So Sad...
TTITLE4=Once In a LifeTime
TTITLE5=Aureus
TTITLE6=Nostradamus
TTITLE7=Coloris
TTITLE8=Reflect
TTITLE9=Foma
TTITLE10=Graduale
TTITLE11=Pater Patriae
TTITLE12=Gregoria The Rhythm
TTITLE13=Deep
TTITLE14=The Quet Self
TTITLE15=Nothing Else Matter
TTITLE16=Child In Time
TTITLE17=Missa De La Mare De Deu Ix [Exclusive Bonus-Track]
EXTD=
EXTT0=
EXTT1=
EXTT2=
EXTT3=
EXTT4=
EXTT5=
EXTT6=
EXTT7=
EXTT8=
EXTT9=
EXTT10=
EXTT11=
EXTT12=
EXTT13=
EXTT14=
EXTT15=
EXTT16=
EXTT17=
PLAYORDER=
